<mxfile host="app.diagrams.net" agent="Mozilla/5.0 (Linux; arm_64; Android 14; SM-A525F) AppleWebKit/537.36 (KHTML, like Gecko) Chrome/132.0.6834.2037 YaApp_Android/25.20.1 YaSearchBrowser/25.20.1 BroPP/1.0 SA/3 Mobile Safari/537.36" version="27.1.0">
  <diagram name="Страница — 1" id="hVQXBccCQ21hFghRCGch">
    <mxGraphModel dx="1093" dy="507" grid="1" gridSize="10" guides="1" tooltips="1" connect="1" arrows="1" fold="1" page="1" pageScale="1" pageWidth="827" pageHeight="1169" math="0" shadow="0">
      <root>
        <mxCell id="0" />
        <mxCell id="1" parent="0" />
        <mxCell id="AKVaaCUsz8rZFZBfhQ30-1" value="" style="shape=umlLifeline;perimeter=lifelinePerimeter;whiteSpace=wrap;html=1;container=1;dropTarget=0;collapsible=0;recursiveResize=0;outlineConnect=0;portConstraint=eastwest;newEdgeStyle={&quot;curved&quot;:0,&quot;rounded&quot;:0};participant=umlActor;" vertex="1" parent="1">
          <mxGeometry x="30" y="10" width="50" height="490" as="geometry" />
        </mxCell>
        <mxCell id="AKVaaCUsz8rZFZBfhQ30-10" value="" style="html=1;points=[[0,0,0,0,5],[0,1,0,0,-5],[1,0,0,0,5],[1,1,0,0,-5]];perimeter=orthogonalPerimeter;outlineConnect=0;targetShapes=umlLifeline;portConstraint=eastwest;newEdgeStyle={&quot;curved&quot;:0,&quot;rounded&quot;:0};" vertex="1" parent="AKVaaCUsz8rZFZBfhQ30-1">
          <mxGeometry x="20" y="110" width="10" height="80" as="geometry" />
        </mxCell>
        <mxCell id="AKVaaCUsz8rZFZBfhQ30-6" value="Interface" style="shape=umlLifeline;perimeter=lifelinePerimeter;whiteSpace=wrap;html=1;container=1;dropTarget=0;collapsible=0;recursiveResize=0;outlineConnect=0;portConstraint=eastwest;newEdgeStyle={&quot;curved&quot;:0,&quot;rounded&quot;:0};" vertex="1" parent="1">
          <mxGeometry x="160" y="10" width="150" height="480" as="geometry" />
        </mxCell>
        <mxCell id="AKVaaCUsz8rZFZBfhQ30-11" value="" style="html=1;points=[[0,0,0,0,5],[0,1,0,0,-5],[1,0,0,0,5],[1,1,0,0,-5]];perimeter=orthogonalPerimeter;outlineConnect=0;targetShapes=umlLifeline;portConstraint=eastwest;newEdgeStyle={&quot;curved&quot;:0,&quot;rounded&quot;:0};" vertex="1" parent="AKVaaCUsz8rZFZBfhQ30-6">
          <mxGeometry x="45" y="150" width="10" height="80" as="geometry" />
        </mxCell>
        <mxCell id="AKVaaCUsz8rZFZBfhQ30-7" value="HumanDAO" style="shape=umlLifeline;perimeter=lifelinePerimeter;whiteSpace=wrap;html=1;container=1;dropTarget=0;collapsible=0;recursiveResize=0;outlineConnect=0;portConstraint=eastwest;newEdgeStyle={&quot;curved&quot;:0,&quot;rounded&quot;:0};" vertex="1" parent="1">
          <mxGeometry x="320" y="10" width="150" height="480" as="geometry" />
        </mxCell>
        <mxCell id="AKVaaCUsz8rZFZBfhQ30-15" value="" style="html=1;points=[[0,0,0,0,5],[0,1,0,0,-5],[1,0,0,0,5],[1,1,0,0,-5]];perimeter=orthogonalPerimeter;outlineConnect=0;targetShapes=umlLifeline;portConstraint=eastwest;newEdgeStyle={&quot;curved&quot;:0,&quot;rounded&quot;:0};" vertex="1" parent="AKVaaCUsz8rZFZBfhQ30-7">
          <mxGeometry x="70" y="330" width="10" height="80" as="geometry" />
        </mxCell>
        <mxCell id="AKVaaCUsz8rZFZBfhQ30-8" value="SQLiteDB" style="shape=umlLifeline;perimeter=lifelinePerimeter;whiteSpace=wrap;html=1;container=1;dropTarget=0;collapsible=0;recursiveResize=0;outlineConnect=0;portConstraint=eastwest;newEdgeStyle={&quot;curved&quot;:0,&quot;rounded&quot;:0};" vertex="1" parent="1">
          <mxGeometry x="490" y="10" width="150" height="480" as="geometry" />
        </mxCell>
        <mxCell id="AKVaaCUsz8rZFZBfhQ30-12" value="" style="html=1;points=[[0,0,0,0,5],[0,1,0,0,-5],[1,0,0,0,5],[1,1,0,0,-5]];perimeter=orthogonalPerimeter;outlineConnect=0;targetShapes=umlLifeline;portConstraint=eastwest;newEdgeStyle={&quot;curved&quot;:0,&quot;rounded&quot;:0};" vertex="1" parent="AKVaaCUsz8rZFZBfhQ30-8">
          <mxGeometry x="70" y="200" width="10" height="110" as="geometry" />
        </mxCell>
        <mxCell id="AKVaaCUsz8rZFZBfhQ30-14" value="" style="html=1;points=[[0,0,0,0,5],[0,1,0,0,-5],[1,0,0,0,5],[1,1,0,0,-5]];perimeter=orthogonalPerimeter;outlineConnect=0;targetShapes=umlLifeline;portConstraint=eastwest;newEdgeStyle={&quot;curved&quot;:0,&quot;rounded&quot;:0};" vertex="1" parent="AKVaaCUsz8rZFZBfhQ30-8">
          <mxGeometry x="70" y="330" width="10" height="80" as="geometry" />
        </mxCell>
        <mxCell id="AKVaaCUsz8rZFZBfhQ30-9" value="Validator" style="shape=umlLifeline;perimeter=lifelinePerimeter;whiteSpace=wrap;html=1;container=1;dropTarget=0;collapsible=0;recursiveResize=0;outlineConnect=0;portConstraint=eastwest;newEdgeStyle={&quot;curved&quot;:0,&quot;rounded&quot;:0};" vertex="1" parent="1">
          <mxGeometry x="670" y="10" width="100" height="480" as="geometry" />
        </mxCell>
        <mxCell id="AKVaaCUsz8rZFZBfhQ30-13" value="" style="html=1;points=[[0,0,0,0,5],[0,1,0,0,-5],[1,0,0,0,5],[1,1,0,0,-5]];perimeter=orthogonalPerimeter;outlineConnect=0;targetShapes=umlLifeline;portConstraint=eastwest;newEdgeStyle={&quot;curved&quot;:0,&quot;rounded&quot;:0};" vertex="1" parent="AKVaaCUsz8rZFZBfhQ30-9">
          <mxGeometry x="45" y="205" width="10" height="80" as="geometry" />
        </mxCell>
        <mxCell id="AKVaaCUsz8rZFZBfhQ30-17" value="Choose operation &quot;create&quot;" style="edgeStyle=orthogonalEdgeStyle;rounded=0;orthogonalLoop=1;jettySize=auto;html=1;curved=0;" edge="1" parent="1" source="AKVaaCUsz8rZFZBfhQ30-10" target="AKVaaCUsz8rZFZBfhQ30-7">
          <mxGeometry relative="1" as="geometry">
            <mxPoint x="125" y="160" as="targetPoint" />
            <Array as="points">
              <mxPoint x="230" y="130" />
              <mxPoint x="230" y="130" />
            </Array>
          </mxGeometry>
        </mxCell>
        <mxCell id="AKVaaCUsz8rZFZBfhQ30-19" value="entry data" style="edgeStyle=orthogonalEdgeStyle;rounded=0;orthogonalLoop=1;jettySize=auto;html=1;curved=0;" edge="1" parent="1" source="AKVaaCUsz8rZFZBfhQ30-10" target="AKVaaCUsz8rZFZBfhQ30-11">
          <mxGeometry relative="1" as="geometry">
            <mxPoint x="90" y="160" as="targetPoint" />
          </mxGeometry>
        </mxCell>
        <mxCell id="AKVaaCUsz8rZFZBfhQ30-21" value="send_data(human)" style="edgeStyle=orthogonalEdgeStyle;rounded=0;orthogonalLoop=1;jettySize=auto;html=1;curved=0;" edge="1" parent="1" source="AKVaaCUsz8rZFZBfhQ30-11" target="AKVaaCUsz8rZFZBfhQ30-8">
          <mxGeometry relative="1" as="geometry">
            <mxPoint x="300" y="200" as="targetPoint" />
            <Array as="points">
              <mxPoint x="240" y="230" />
              <mxPoint x="240" y="230" />
            </Array>
          </mxGeometry>
        </mxCell>
        <mxCell id="AKVaaCUsz8rZFZBfhQ30-23" value="check_formats()" style="edgeStyle=orthogonalEdgeStyle;rounded=0;orthogonalLoop=1;jettySize=auto;html=1;curved=0;" edge="1" parent="1" source="AKVaaCUsz8rZFZBfhQ30-12" target="AKVaaCUsz8rZFZBfhQ30-9">
          <mxGeometry relative="1" as="geometry">
            <mxPoint x="630" y="255" as="targetPoint" />
            <Array as="points">
              <mxPoint x="640" y="220" />
              <mxPoint x="640" y="220" />
            </Array>
          </mxGeometry>
        </mxCell>
        <mxCell id="AKVaaCUsz8rZFZBfhQ30-26" value="" style="endArrow=open;endSize=12;dashed=1;html=1;rounded=0;" edge="1" parent="1" target="AKVaaCUsz8rZFZBfhQ30-8">
          <mxGeometry width="160" relative="1" as="geometry">
            <mxPoint x="710" y="280" as="sourcePoint" />
            <mxPoint x="870" y="280" as="targetPoint" />
          </mxGeometry>
        </mxCell>
        <mxCell id="AKVaaCUsz8rZFZBfhQ30-28" value="execute_INSERT()" style="edgeStyle=orthogonalEdgeStyle;rounded=0;orthogonalLoop=1;jettySize=auto;html=1;curved=0;" edge="1" parent="1">
          <mxGeometry relative="1" as="geometry">
            <mxPoint x="400" y="350" as="sourcePoint" />
            <mxPoint x="560" y="351" as="targetPoint" />
            <Array as="points">
              <mxPoint x="430" y="350" />
              <mxPoint x="430" y="351" />
            </Array>
          </mxGeometry>
        </mxCell>
        <mxCell id="AKVaaCUsz8rZFZBfhQ30-29" value="" style="endArrow=open;endSize=12;dashed=1;html=1;rounded=0;exitX=0;exitY=1;exitDx=0;exitDy=-5;exitPerimeter=0;" edge="1" parent="1" source="AKVaaCUsz8rZFZBfhQ30-14" target="AKVaaCUsz8rZFZBfhQ30-7">
          <mxGeometry width="160" relative="1" as="geometry">
            <mxPoint x="330" y="300" as="sourcePoint" />
            <mxPoint x="490" y="300" as="targetPoint" />
          </mxGeometry>
        </mxCell>
        <mxCell id="AKVaaCUsz8rZFZBfhQ30-30" value="" style="endArrow=open;endSize=12;dashed=1;html=1;rounded=0;" edge="1" parent="1">
          <mxGeometry width="160" relative="1" as="geometry">
            <mxPoint x="390" y="450" as="sourcePoint" />
            <mxPoint x="234.5" y="450" as="targetPoint" />
          </mxGeometry>
        </mxCell>
        <mxCell id="AKVaaCUsz8rZFZBfhQ30-31" value="" style="endArrow=open;endSize=12;dashed=1;html=1;rounded=0;" edge="1" parent="1">
          <mxGeometry width="160" relative="1" as="geometry">
            <mxPoint x="560" y="310" as="sourcePoint" />
            <mxPoint x="230" y="310" as="targetPoint" />
          </mxGeometry>
        </mxCell>
        <mxCell id="AKVaaCUsz8rZFZBfhQ30-32" value="" style="endArrow=open;endSize=12;dashed=1;html=1;rounded=0;" edge="1" parent="1">
          <mxGeometry width="160" relative="1" as="geometry">
            <mxPoint x="235.5" y="360" as="sourcePoint" />
            <mxPoint x="50" y="360" as="targetPoint" />
          </mxGeometry>
        </mxCell>
        <mxCell id="AKVaaCUsz8rZFZBfhQ30-33" value="" style="endArrow=open;endSize=12;dashed=1;html=1;rounded=0;" edge="1" parent="1" source="AKVaaCUsz8rZFZBfhQ30-6" target="AKVaaCUsz8rZFZBfhQ30-1">
          <mxGeometry width="160" relative="1" as="geometry">
            <mxPoint x="240" y="490" as="sourcePoint" />
            <mxPoint x="400" y="490" as="targetPoint" />
            <Array as="points">
              <mxPoint x="110" y="480" />
            </Array>
          </mxGeometry>
        </mxCell>
      </root>
    </mxGraphModel>
  </diagram>
</mxfile>
